<svg xmlns="http://www.w3.org/2000/svg" viewBox="0 0 1034.74 166.41"><defs><style>.cls-1{fill:#161616;}</style></defs><g id="Layer_2" data-name="Layer 2"><g id="Isolation_Mode" data-name="Isolation Mode"><path class="cls-1" d="M21.37,16.38V56L0,77.36v74.18H106.9V111.93l21.38-21.37V16.38ZM42.76,130.17H21.37V90.56H42.76Zm0-92.42H64.14V77.36H42.76Zm42.75,92.42H64.14V90.56H85.51ZM106.9,77.36H85.51V37.75H106.9Z"/><path class="cls-1" d="M923.51,70.15c-1.13-34-44.46-47.44-64.79-20.45-.07.1,0-.56,0-12h-22v92.43h25L862.1,75c0-24.56,36.45-24.56,36.45,0v55.13h25C923.54,67.6,923.61,70.15,923.51,70.15Z"/><rect class="cls-1" x="794.6" y="37.75" width="24.99" height="92.43"/><path class="cls-1" d="M604.45,37.74v8.41A48.2,48.2,0,0,0,589.27,38a48.78,48.78,0,1,0,15.18,84.62v7.53h22V37.74ZM601.16,91.8a25.71,25.71,0,1,1-16.48-32.39A25.72,25.72,0,0,1,601.16,91.8Z"/><path class="cls-1" d="M1009.75,14.43V43.78A48.18,48.18,0,0,0,997.83,38a48.77,48.77,0,1,0,14.89,84.86v7.29h22V0Zm0,77.37a25.71,25.71,0,1,1-16.48-32.39A25.71,25.71,0,0,1,1009.73,91.8Z"/><circle class="cls-1" cx="807.1" cy="13.85" r="13.85"/><path class="cls-1" d="M665.63,50.27a32.9,32.9,0,0,1,27.7-14.72c19.12,0,27.55,16.57,27.55,16.57A31.89,31.89,0,0,1,749.06,35.6a32.21,32.21,0,0,1,32.26,32.21v62.36h-25V72.3a15.68,15.68,0,0,0-31.36,0c0,8.58,0,57.87,0,57.87H700V72.3a15.69,15.69,0,0,0-31.37,0v57.87h-25V37.74h22Z"/><path class="cls-1" d="M188.43,50.3a32.9,32.9,0,0,1,27.7-14.72c19.12,0,27.55,16.57,27.55,16.57a31.89,31.89,0,0,1,28.18-16.52,32.21,32.21,0,0,1,32.26,32.21V130.2h-25V72.33a15.68,15.68,0,0,0-31.36,0V130.2h-25s0-47.52,0-57.87a15.68,15.68,0,1,0-31.36,0V130.2h-25V37.77h22Z"/><path class="cls-1" d="M421.76,133.16c2,5.35,13.85,33.25,44.34,33.25,33.73,0,48.85-29.2,48.85-45s.16-83.66.16-83.66H493.18v8.68A45.49,45.49,0,0,0,463.49,35.6a46.18,46.18,0,1,0,0,92.35c17.57,0,27.34-9.31,27.34-9.31a22.39,22.39,0,0,1,.15,2.71,20.6,20.6,0,0,1-.94,7.1c-2.25,7-9.68,16.75-22.72,16.75-11.07,0-18.48-9.13-20.56-12Zm45.56-27.59a23.8,23.8,0,1,1,23.8-23.79A23.79,23.79,0,0,1,467.32,105.57Z"/><path class="cls-1" d="M360.74,35.6a47.29,47.29,0,1,0,44.75,62.6H380.38a23.18,23.18,0,0,1-41.89-8.32l0-.12h69A47.3,47.3,0,0,0,360.74,35.6ZM339,72.63s4.76-16.49,22.19-16.49,22.19,16.49,22.19,16.49Z"/></g></g></svg>